<mxfile host="app.diagrams.net" modified="2022-03-09T06:42:24.301Z" agent="5.0 (Windows NT 10.0; Win64; x64) AppleWebKit/537.36 (KHTML, like Gecko) Chrome/98.0.4758.102 Safari/537.36" etag="VTfoWGNG16wGMD76rz3s" version="16.6.6" type="github">
  <diagram id="_3J4f98MG1BeLY5i7yz8" name="Page-1">
    <mxGraphModel dx="1422" dy="786" grid="1" gridSize="10" guides="1" tooltips="1" connect="1" arrows="1" fold="1" page="1" pageScale="1" pageWidth="850" pageHeight="1100" math="0" shadow="0">
      <root>
        <mxCell id="0" />
        <mxCell id="1" parent="0" />
        <mxCell id="YzzAQYbLmQMsQMHN12tz-1" value="Network&lt;br&gt;Cloud" style="ellipse;shape=cloud;whiteSpace=wrap;html=1;" vertex="1" parent="1">
          <mxGeometry x="70" y="140" width="120" height="80" as="geometry" />
        </mxCell>
        <mxCell id="YzzAQYbLmQMsQMHN12tz-4" style="edgeStyle=orthogonalEdgeStyle;rounded=0;orthogonalLoop=1;jettySize=auto;html=1;exitX=0;exitY=0.5;exitDx=0;exitDy=0;exitPerimeter=0;entryX=0;entryY=0.5;entryDx=0;entryDy=0;entryPerimeter=0;startArrow=classic;startFill=1;" edge="1" parent="1" source="YzzAQYbLmQMsQMHN12tz-2" target="YzzAQYbLmQMsQMHN12tz-3">
          <mxGeometry relative="1" as="geometry" />
        </mxCell>
        <mxCell id="YzzAQYbLmQMsQMHN12tz-2" value="Worker Machines [1..*]" style="outlineConnect=0;dashed=0;verticalLabelPosition=bottom;verticalAlign=top;align=center;html=1;shape=mxgraph.aws3.management_console;fillColor=#D2D3D3;gradientColor=none;" vertex="1" parent="1">
          <mxGeometry x="98.5" y="380" width="63" height="63" as="geometry" />
        </mxCell>
        <mxCell id="YzzAQYbLmQMsQMHN12tz-5" style="edgeStyle=orthogonalEdgeStyle;rounded=0;orthogonalLoop=1;jettySize=auto;html=1;exitX=0.75;exitY=0;exitDx=0;exitDy=0;exitPerimeter=0;startArrow=classic;startFill=1;" edge="1" parent="1" source="YzzAQYbLmQMsQMHN12tz-3" target="YzzAQYbLmQMsQMHN12tz-1">
          <mxGeometry relative="1" as="geometry" />
        </mxCell>
        <mxCell id="YzzAQYbLmQMsQMHN12tz-3" value="QueenBee [1]" style="outlineConnect=0;dashed=0;verticalLabelPosition=bottom;verticalAlign=top;align=center;html=1;shape=mxgraph.aws3.management_console;fillColor=#D2D3D3;gradientColor=none;" vertex="1" parent="1">
          <mxGeometry x="98.5" y="260" width="63" height="63" as="geometry" />
        </mxCell>
        <mxCell id="YzzAQYbLmQMsQMHN12tz-7" style="edgeStyle=orthogonalEdgeStyle;rounded=0;orthogonalLoop=1;jettySize=auto;html=1;exitX=1;exitY=0.5;exitDx=0;exitDy=0;startArrow=classic;startFill=1;" edge="1" parent="1" source="YzzAQYbLmQMsQMHN12tz-6" target="YzzAQYbLmQMsQMHN12tz-1">
          <mxGeometry relative="1" as="geometry" />
        </mxCell>
        <mxCell id="YzzAQYbLmQMsQMHN12tz-6" value="Clients [1..*]" style="aspect=fixed;perimeter=ellipsePerimeter;html=1;align=center;shadow=0;dashed=0;spacingTop=3;image;image=img/lib/active_directory/laptop_client.svg;" vertex="1" parent="1">
          <mxGeometry x="40" y="40" width="45" height="50" as="geometry" />
        </mxCell>
        <mxCell id="YzzAQYbLmQMsQMHN12tz-8" value="QueenBee" style="rounded=0;whiteSpace=wrap;html=1;align=left;verticalAlign=top;fillColor=none;" vertex="1" parent="1">
          <mxGeometry x="360" y="40" width="400" height="620" as="geometry" />
        </mxCell>
        <mxCell id="YzzAQYbLmQMsQMHN12tz-9" value="API" style="rounded=0;whiteSpace=wrap;html=1;align=left;verticalAlign=top;fillColor=none;" vertex="1" parent="1">
          <mxGeometry x="370" y="80" width="180" height="280" as="geometry" />
        </mxCell>
        <mxCell id="YzzAQYbLmQMsQMHN12tz-10" value="Client Process Request" style="rounded=1;whiteSpace=wrap;html=1;fillColor=none;" vertex="1" parent="1">
          <mxGeometry x="400" y="120" width="120" height="40" as="geometry" />
        </mxCell>
        <mxCell id="YzzAQYbLmQMsQMHN12tz-11" value="Client Process Update" style="rounded=1;whiteSpace=wrap;html=1;fillColor=none;" vertex="1" parent="1">
          <mxGeometry x="400" y="180" width="120" height="40" as="geometry" />
        </mxCell>
        <mxCell id="YzzAQYbLmQMsQMHN12tz-12" value="Client Process Results" style="rounded=1;whiteSpace=wrap;html=1;fillColor=none;" vertex="1" parent="1">
          <mxGeometry x="400" y="240" width="120" height="40" as="geometry" />
        </mxCell>
        <mxCell id="YzzAQYbLmQMsQMHN12tz-13" value="Other Things" style="rounded=0;whiteSpace=wrap;html=1;align=left;verticalAlign=top;fillColor=none;" vertex="1" parent="1">
          <mxGeometry x="370" y="460" width="380" height="180" as="geometry" />
        </mxCell>
        <mxCell id="YzzAQYbLmQMsQMHN12tz-14" value="Process Queues" style="rounded=0;whiteSpace=wrap;html=1;align=left;verticalAlign=top;fillColor=none;" vertex="1" parent="1">
          <mxGeometry x="570" y="80" width="180" height="360" as="geometry" />
        </mxCell>
        <mxCell id="YzzAQYbLmQMsQMHN12tz-15" value="Request Queue" style="rounded=1;whiteSpace=wrap;html=1;fillColor=none;" vertex="1" parent="1">
          <mxGeometry x="600" y="120" width="120" height="40" as="geometry" />
        </mxCell>
        <mxCell id="YzzAQYbLmQMsQMHN12tz-16" value="Process Queue" style="rounded=1;whiteSpace=wrap;html=1;fillColor=none;" vertex="1" parent="1">
          <mxGeometry x="600" y="180" width="120" height="40" as="geometry" />
        </mxCell>
        <mxCell id="YzzAQYbLmQMsQMHN12tz-17" value="Process Holding" style="rounded=1;whiteSpace=wrap;html=1;fillColor=none;" vertex="1" parent="1">
          <mxGeometry x="600" y="300" width="120" height="40" as="geometry" />
        </mxCell>
        <mxCell id="YzzAQYbLmQMsQMHN12tz-18" value="Request Results Queue" style="rounded=1;whiteSpace=wrap;html=1;fillColor=none;" vertex="1" parent="1">
          <mxGeometry x="600" y="360" width="120" height="40" as="geometry" />
        </mxCell>
        <mxCell id="YzzAQYbLmQMsQMHN12tz-19" value="Worker Process Results" style="rounded=1;whiteSpace=wrap;html=1;fillColor=none;" vertex="1" parent="1">
          <mxGeometry x="400" y="300" width="120" height="40" as="geometry" />
        </mxCell>
        <mxCell id="YzzAQYbLmQMsQMHN12tz-20" value="Request Holding" style="rounded=1;whiteSpace=wrap;html=1;fillColor=none;" vertex="1" parent="1">
          <mxGeometry x="600" y="240" width="120" height="40" as="geometry" />
        </mxCell>
        <mxCell id="YzzAQYbLmQMsQMHN12tz-21" value="" style="ellipse;html=1;shape=startState;fillColor=#000000;strokeColor=#ff0000;" vertex="1" parent="1">
          <mxGeometry x="940" y="40" width="30" height="30" as="geometry" />
        </mxCell>
        <mxCell id="YzzAQYbLmQMsQMHN12tz-22" value="" style="edgeStyle=orthogonalEdgeStyle;html=1;verticalAlign=bottom;endArrow=open;endSize=8;strokeColor=#ff0000;rounded=0;entryX=0.5;entryY=0;entryDx=0;entryDy=0;" edge="1" source="YzzAQYbLmQMsQMHN12tz-21" parent="1" target="YzzAQYbLmQMsQMHN12tz-23">
          <mxGeometry relative="1" as="geometry">
            <mxPoint x="955" y="130" as="targetPoint" />
          </mxGeometry>
        </mxCell>
        <mxCell id="YzzAQYbLmQMsQMHN12tz-23" value="API:&lt;br&gt;Receive Process Request" style="rounded=1;whiteSpace=wrap;html=1;arcSize=40;fontColor=#000000;fillColor=#ffffc0;strokeColor=#ff0000;" vertex="1" parent="1">
          <mxGeometry x="920" y="130" width="120" height="80" as="geometry" />
        </mxCell>
        <mxCell id="YzzAQYbLmQMsQMHN12tz-24" value="" style="edgeStyle=orthogonalEdgeStyle;html=1;verticalAlign=bottom;endArrow=open;endSize=8;strokeColor=#ff0000;rounded=0;entryX=0.5;entryY=0;entryDx=0;entryDy=0;" edge="1" source="YzzAQYbLmQMsQMHN12tz-23" parent="1" target="YzzAQYbLmQMsQMHN12tz-25">
          <mxGeometry relative="1" as="geometry">
            <mxPoint x="990" y="260" as="targetPoint" />
          </mxGeometry>
        </mxCell>
        <mxCell id="YzzAQYbLmQMsQMHN12tz-25" value="Add Request to Request Queue" style="rounded=1;whiteSpace=wrap;html=1;arcSize=40;fontColor=#000000;fillColor=#ffffc0;strokeColor=#ff0000;" vertex="1" parent="1">
          <mxGeometry x="920" y="250" width="120" height="80" as="geometry" />
        </mxCell>
        <mxCell id="YzzAQYbLmQMsQMHN12tz-26" value="" style="edgeStyle=orthogonalEdgeStyle;html=1;verticalAlign=bottom;endArrow=open;endSize=8;strokeColor=#ff0000;rounded=0;entryX=0.5;entryY=0;entryDx=0;entryDy=0;" edge="1" source="YzzAQYbLmQMsQMHN12tz-25" parent="1" target="YzzAQYbLmQMsQMHN12tz-27">
          <mxGeometry relative="1" as="geometry">
            <mxPoint x="1000" y="380" as="targetPoint" />
          </mxGeometry>
        </mxCell>
        <mxCell id="YzzAQYbLmQMsQMHN12tz-27" value="Process Request into individual process(s) so that worker(s) can work on them" style="rounded=1;whiteSpace=wrap;html=1;arcSize=40;fontColor=#000000;fillColor=#ffffc0;strokeColor=#ff0000;" vertex="1" parent="1">
          <mxGeometry x="920" y="370" width="160" height="77" as="geometry" />
        </mxCell>
        <mxCell id="YzzAQYbLmQMsQMHN12tz-28" value="" style="edgeStyle=orthogonalEdgeStyle;html=1;verticalAlign=bottom;endArrow=open;endSize=8;strokeColor=#ff0000;rounded=0;entryX=0.5;entryY=0;entryDx=0;entryDy=0;" edge="1" source="YzzAQYbLmQMsQMHN12tz-27" parent="1" target="YzzAQYbLmQMsQMHN12tz-29">
          <mxGeometry relative="1" as="geometry">
            <mxPoint x="1020" y="513" as="targetPoint" />
          </mxGeometry>
        </mxCell>
        <mxCell id="YzzAQYbLmQMsQMHN12tz-29" value="Place Request in Request Queue into the Request Holding List" style="rounded=1;whiteSpace=wrap;html=1;arcSize=40;fontColor=#000000;fillColor=#ffffc0;strokeColor=#ff0000;" vertex="1" parent="1">
          <mxGeometry x="920" y="490" width="160" height="80" as="geometry" />
        </mxCell>
        <mxCell id="YzzAQYbLmQMsQMHN12tz-30" value="" style="edgeStyle=orthogonalEdgeStyle;html=1;verticalAlign=bottom;endArrow=open;endSize=8;strokeColor=#ff0000;rounded=0;entryX=0.5;entryY=0;entryDx=0;entryDy=0;" edge="1" source="YzzAQYbLmQMsQMHN12tz-29" parent="1" target="YzzAQYbLmQMsQMHN12tz-31">
          <mxGeometry relative="1" as="geometry">
            <mxPoint x="1050" y="640" as="targetPoint" />
          </mxGeometry>
        </mxCell>
        <mxCell id="YzzAQYbLmQMsQMHN12tz-31" value="Assign Process in Process Queue to a Worker Machine&lt;span style=&quot;color: rgba(0 , 0 , 0 , 0) ; font-family: monospace ; font-size: 0px&quot;&gt;%3CmxGraphModel%3E%3Croot%3E%3CmxCell%20id%3D%220%22%2F%3E%3CmxCell%20id%3D%221%22%20parent%3D%220%22%2F%3E%3CmxCell%20id%3D%222%22%20value%3D%22Place%20Request%20in%20Request%20Queue%20into%20the%20Request%20Holding%20List%22%20style%3D%22rounded%3D1%3BwhiteSpace%3Dwrap%3Bhtml%3D1%3BarcSize%3D40%3BfontColor%3D%23000000%3BfillColor%3D%23ffffc0%3BstrokeColor%3D%23ff0000%3B%22%20vertex%3D%221%22%20parent%3D%221%22%3E%3CmxGeometry%20x%3D%22960%22%20y%3D%22560%22%20width%3D%22160%22%20height%3D%2280%22%20as%3D%22geometry%22%2F%3E%3C%2FmxCell%3E%3C%2Froot%3E%3C%2FmxGraphModel%3E&lt;/span&gt;" style="rounded=1;whiteSpace=wrap;html=1;arcSize=40;fontColor=#000000;fillColor=#ffffc0;strokeColor=#ff0000;" vertex="1" parent="1">
          <mxGeometry x="920" y="610" width="160" height="80" as="geometry" />
        </mxCell>
        <mxCell id="YzzAQYbLmQMsQMHN12tz-32" value="Place Process in Process Queue into the Process Holding List" style="rounded=1;whiteSpace=wrap;html=1;arcSize=40;fontColor=#000000;fillColor=#ffffc0;strokeColor=#ff0000;" vertex="1" parent="1">
          <mxGeometry x="920" y="730" width="160" height="80" as="geometry" />
        </mxCell>
        <mxCell id="YzzAQYbLmQMsQMHN12tz-33" value="" style="edgeStyle=orthogonalEdgeStyle;html=1;verticalAlign=bottom;endArrow=open;endSize=8;strokeColor=#ff0000;rounded=0;entryX=0.5;entryY=0;entryDx=0;entryDy=0;exitX=0.5;exitY=1;exitDx=0;exitDy=0;" edge="1" parent="1" source="YzzAQYbLmQMsQMHN12tz-31" target="YzzAQYbLmQMsQMHN12tz-32">
          <mxGeometry relative="1" as="geometry">
            <mxPoint x="1060" y="650" as="targetPoint" />
            <mxPoint x="1010" y="580" as="sourcePoint" />
          </mxGeometry>
        </mxCell>
        <mxCell id="YzzAQYbLmQMsQMHN12tz-34" value="Once a process is complete, update the Request in the Request Holding List and remove process from Process Holding List" style="rounded=1;whiteSpace=wrap;html=1;arcSize=40;fontColor=#000000;fillColor=#ffffc0;strokeColor=#ff0000;" vertex="1" parent="1">
          <mxGeometry x="920" y="850" width="200" height="120" as="geometry" />
        </mxCell>
        <mxCell id="YzzAQYbLmQMsQMHN12tz-35" value="Once a Request is complete, move the Request to the Request Results Queue" style="rounded=1;whiteSpace=wrap;html=1;arcSize=40;fontColor=#000000;fillColor=#ffffc0;strokeColor=#ff0000;" vertex="1" parent="1">
          <mxGeometry x="920" y="1010" width="160" height="80" as="geometry" />
        </mxCell>
        <mxCell id="YzzAQYbLmQMsQMHN12tz-36" value="" style="edgeStyle=orthogonalEdgeStyle;html=1;verticalAlign=bottom;endArrow=open;endSize=8;strokeColor=#ff0000;rounded=0;entryX=0.5;entryY=0;entryDx=0;entryDy=0;exitX=0.5;exitY=1;exitDx=0;exitDy=0;" edge="1" parent="1" source="YzzAQYbLmQMsQMHN12tz-32" target="YzzAQYbLmQMsQMHN12tz-34">
          <mxGeometry relative="1" as="geometry">
            <mxPoint x="1010" y="740" as="targetPoint" />
            <mxPoint x="1010" y="700" as="sourcePoint" />
          </mxGeometry>
        </mxCell>
        <mxCell id="YzzAQYbLmQMsQMHN12tz-37" value="" style="edgeStyle=orthogonalEdgeStyle;html=1;verticalAlign=bottom;endArrow=open;endSize=8;strokeColor=#ff0000;rounded=0;entryX=0.5;entryY=0;entryDx=0;entryDy=0;exitX=0.5;exitY=1;exitDx=0;exitDy=0;" edge="1" parent="1" source="YzzAQYbLmQMsQMHN12tz-34" target="YzzAQYbLmQMsQMHN12tz-35">
          <mxGeometry relative="1" as="geometry">
            <mxPoint x="1020" y="750" as="targetPoint" />
            <mxPoint x="1020" y="710" as="sourcePoint" />
          </mxGeometry>
        </mxCell>
        <mxCell id="YzzAQYbLmQMsQMHN12tz-38" value=":API" style="shape=umlLifeline;perimeter=lifelinePerimeter;whiteSpace=wrap;html=1;container=1;collapsible=0;recursiveResize=0;outlineConnect=0;fillColor=none;" vertex="1" parent="1">
          <mxGeometry x="1280" y="120" width="80" height="440" as="geometry" />
        </mxCell>
        <mxCell id="YzzAQYbLmQMsQMHN12tz-39" value="" style="html=1;points=[];perimeter=orthogonalPerimeter;fillColor=default;" vertex="1" parent="YzzAQYbLmQMsQMHN12tz-38">
          <mxGeometry x="35" y="70" width="10" height="40" as="geometry" />
        </mxCell>
        <mxCell id="YzzAQYbLmQMsQMHN12tz-86" value="" style="html=1;points=[];perimeter=orthogonalPerimeter;fillColor=default;" vertex="1" parent="YzzAQYbLmQMsQMHN12tz-38">
          <mxGeometry x="35" y="310" width="10" height="60" as="geometry" />
        </mxCell>
        <mxCell id="YzzAQYbLmQMsQMHN12tz-42" value=":Request Queue" style="shape=umlLifeline;perimeter=lifelinePerimeter;whiteSpace=wrap;html=1;container=1;collapsible=0;recursiveResize=0;outlineConnect=0;fillColor=default;" vertex="1" parent="1">
          <mxGeometry x="1400" y="120" width="80" height="200" as="geometry" />
        </mxCell>
        <mxCell id="YzzAQYbLmQMsQMHN12tz-43" value="" style="html=1;points=[];perimeter=orthogonalPerimeter;fillColor=default;" vertex="1" parent="YzzAQYbLmQMsQMHN12tz-42">
          <mxGeometry x="35" y="80" width="10" height="60" as="geometry" />
        </mxCell>
        <mxCell id="YzzAQYbLmQMsQMHN12tz-44" style="edgeStyle=orthogonalEdgeStyle;rounded=0;orthogonalLoop=1;jettySize=auto;html=1;startArrow=none;startFill=0;" edge="1" parent="1" source="YzzAQYbLmQMsQMHN12tz-39" target="YzzAQYbLmQMsQMHN12tz-42">
          <mxGeometry relative="1" as="geometry">
            <Array as="points">
              <mxPoint x="1380" y="210" />
              <mxPoint x="1380" y="210" />
            </Array>
          </mxGeometry>
        </mxCell>
        <mxCell id="YzzAQYbLmQMsQMHN12tz-45" value="Add Request" style="edgeLabel;html=1;align=center;verticalAlign=middle;resizable=0;points=[];" vertex="1" connectable="0" parent="YzzAQYbLmQMsQMHN12tz-44">
          <mxGeometry x="-0.1531" y="-2" relative="1" as="geometry">
            <mxPoint x="7" y="8" as="offset" />
          </mxGeometry>
        </mxCell>
        <mxCell id="YzzAQYbLmQMsQMHN12tz-46" value=":Thread" style="shape=umlLifeline;perimeter=lifelinePerimeter;whiteSpace=wrap;html=1;container=1;collapsible=0;recursiveResize=0;outlineConnect=0;fillColor=default;" vertex="1" parent="1">
          <mxGeometry x="1520" y="120" width="80" height="840" as="geometry" />
        </mxCell>
        <mxCell id="YzzAQYbLmQMsQMHN12tz-47" value="" style="html=1;points=[];perimeter=orthogonalPerimeter;fillColor=default;" vertex="1" parent="YzzAQYbLmQMsQMHN12tz-46">
          <mxGeometry x="35" y="80" width="10" height="720" as="geometry" />
        </mxCell>
        <mxCell id="YzzAQYbLmQMsQMHN12tz-48" style="edgeStyle=orthogonalEdgeStyle;rounded=0;orthogonalLoop=1;jettySize=auto;html=1;startArrow=none;startFill=0;" edge="1" parent="1" source="YzzAQYbLmQMsQMHN12tz-47" target="YzzAQYbLmQMsQMHN12tz-42">
          <mxGeometry relative="1" as="geometry">
            <Array as="points">
              <mxPoint x="1500" y="220" />
              <mxPoint x="1500" y="220" />
            </Array>
          </mxGeometry>
        </mxCell>
        <mxCell id="YzzAQYbLmQMsQMHN12tz-49" value="Next" style="edgeLabel;html=1;align=center;verticalAlign=middle;resizable=0;points=[];" vertex="1" connectable="0" parent="YzzAQYbLmQMsQMHN12tz-48">
          <mxGeometry x="-0.1355" y="1" relative="1" as="geometry">
            <mxPoint x="-5" y="9" as="offset" />
          </mxGeometry>
        </mxCell>
        <mxCell id="YzzAQYbLmQMsQMHN12tz-50" style="edgeStyle=orthogonalEdgeStyle;rounded=0;orthogonalLoop=1;jettySize=auto;html=1;startArrow=none;startFill=0;dashed=1;" edge="1" parent="1" source="YzzAQYbLmQMsQMHN12tz-43" target="YzzAQYbLmQMsQMHN12tz-46">
          <mxGeometry relative="1" as="geometry">
            <Array as="points">
              <mxPoint x="1500" y="240" />
              <mxPoint x="1500" y="240" />
            </Array>
          </mxGeometry>
        </mxCell>
        <mxCell id="YzzAQYbLmQMsQMHN12tz-51" value="Request" style="edgeLabel;html=1;align=center;verticalAlign=middle;resizable=0;points=[];" vertex="1" connectable="0" parent="YzzAQYbLmQMsQMHN12tz-50">
          <mxGeometry x="0.1962" y="-2" relative="1" as="geometry">
            <mxPoint x="-13" y="8" as="offset" />
          </mxGeometry>
        </mxCell>
        <mxCell id="YzzAQYbLmQMsQMHN12tz-52" value=":Process Queue" style="shape=umlLifeline;perimeter=lifelinePerimeter;whiteSpace=wrap;html=1;container=1;collapsible=0;recursiveResize=0;outlineConnect=0;fillColor=default;" vertex="1" parent="1">
          <mxGeometry x="1640" y="120" width="80" height="240" as="geometry" />
        </mxCell>
        <mxCell id="YzzAQYbLmQMsQMHN12tz-53" value="" style="html=1;points=[];perimeter=orthogonalPerimeter;fillColor=default;" vertex="1" parent="YzzAQYbLmQMsQMHN12tz-52">
          <mxGeometry x="35" y="120" width="10" height="60" as="geometry" />
        </mxCell>
        <mxCell id="YzzAQYbLmQMsQMHN12tz-54" style="edgeStyle=orthogonalEdgeStyle;rounded=0;orthogonalLoop=1;jettySize=auto;html=1;startArrow=none;startFill=0;" edge="1" parent="1" source="YzzAQYbLmQMsQMHN12tz-47" target="YzzAQYbLmQMsQMHN12tz-52">
          <mxGeometry relative="1" as="geometry">
            <Array as="points">
              <mxPoint x="1620" y="250" />
              <mxPoint x="1620" y="250" />
            </Array>
          </mxGeometry>
        </mxCell>
        <mxCell id="YzzAQYbLmQMsQMHN12tz-55" value="Add Process [1..*]" style="edgeLabel;html=1;align=center;verticalAlign=middle;resizable=0;points=[];" vertex="1" connectable="0" parent="YzzAQYbLmQMsQMHN12tz-54">
          <mxGeometry x="0.1115" y="1" relative="1" as="geometry">
            <mxPoint x="-9" y="11" as="offset" />
          </mxGeometry>
        </mxCell>
        <mxCell id="YzzAQYbLmQMsQMHN12tz-56" value=":Thread" style="shape=umlLifeline;perimeter=lifelinePerimeter;whiteSpace=wrap;html=1;container=1;collapsible=0;recursiveResize=0;outlineConnect=0;fillColor=default;" vertex="1" parent="1">
          <mxGeometry x="1760" y="120" width="80" height="840" as="geometry" />
        </mxCell>
        <mxCell id="YzzAQYbLmQMsQMHN12tz-57" value="" style="html=1;points=[];perimeter=orthogonalPerimeter;fillColor=default;" vertex="1" parent="YzzAQYbLmQMsQMHN12tz-56">
          <mxGeometry x="35" y="80" width="10" height="720" as="geometry" />
        </mxCell>
        <mxCell id="YzzAQYbLmQMsQMHN12tz-58" style="edgeStyle=orthogonalEdgeStyle;rounded=0;orthogonalLoop=1;jettySize=auto;html=1;startArrow=none;startFill=0;" edge="1" parent="1" source="YzzAQYbLmQMsQMHN12tz-57" target="YzzAQYbLmQMsQMHN12tz-53">
          <mxGeometry relative="1" as="geometry">
            <mxPoint x="1754.98" y="239.52" as="sourcePoint" />
            <mxPoint x="1640.0038095238097" y="239.52" as="targetPoint" />
            <Array as="points">
              <mxPoint x="1740" y="260" />
              <mxPoint x="1740" y="260" />
            </Array>
          </mxGeometry>
        </mxCell>
        <mxCell id="YzzAQYbLmQMsQMHN12tz-59" value="Next" style="edgeLabel;html=1;align=center;verticalAlign=middle;resizable=0;points=[];" vertex="1" connectable="0" parent="YzzAQYbLmQMsQMHN12tz-58">
          <mxGeometry x="-0.1355" y="1" relative="1" as="geometry">
            <mxPoint x="-5" y="9" as="offset" />
          </mxGeometry>
        </mxCell>
        <mxCell id="YzzAQYbLmQMsQMHN12tz-60" style="edgeStyle=orthogonalEdgeStyle;rounded=0;orthogonalLoop=1;jettySize=auto;html=1;startArrow=none;startFill=0;dashed=1;" edge="1" parent="1" source="YzzAQYbLmQMsQMHN12tz-53" target="YzzAQYbLmQMsQMHN12tz-57">
          <mxGeometry relative="1" as="geometry">
            <mxPoint x="1455" y="250" as="sourcePoint" />
            <mxPoint x="1569.4999999999995" y="250" as="targetPoint" />
            <Array as="points">
              <mxPoint x="1710" y="280" />
              <mxPoint x="1710" y="280" />
            </Array>
          </mxGeometry>
        </mxCell>
        <mxCell id="YzzAQYbLmQMsQMHN12tz-61" value="Process" style="edgeLabel;html=1;align=center;verticalAlign=middle;resizable=0;points=[];" vertex="1" connectable="0" parent="YzzAQYbLmQMsQMHN12tz-60">
          <mxGeometry x="0.1962" y="-2" relative="1" as="geometry">
            <mxPoint x="-13" y="8" as="offset" />
          </mxGeometry>
        </mxCell>
        <mxCell id="YzzAQYbLmQMsQMHN12tz-62" value=":Worker Caller" style="shape=umlLifeline;perimeter=lifelinePerimeter;whiteSpace=wrap;html=1;container=1;collapsible=0;recursiveResize=0;outlineConnect=0;fillColor=default;" vertex="1" parent="1">
          <mxGeometry x="1880" y="120" width="80" height="280" as="geometry" />
        </mxCell>
        <mxCell id="YzzAQYbLmQMsQMHN12tz-63" value="" style="html=1;points=[];perimeter=orthogonalPerimeter;fillColor=default;" vertex="1" parent="YzzAQYbLmQMsQMHN12tz-62">
          <mxGeometry x="35" y="160" width="10" height="60" as="geometry" />
        </mxCell>
        <mxCell id="YzzAQYbLmQMsQMHN12tz-64" style="edgeStyle=orthogonalEdgeStyle;rounded=0;orthogonalLoop=1;jettySize=auto;html=1;startArrow=none;startFill=0;" edge="1" parent="1" source="YzzAQYbLmQMsQMHN12tz-57" target="YzzAQYbLmQMsQMHN12tz-63">
          <mxGeometry relative="1" as="geometry">
            <Array as="points">
              <mxPoint x="1830" y="290" />
              <mxPoint x="1830" y="290" />
            </Array>
          </mxGeometry>
        </mxCell>
        <mxCell id="YzzAQYbLmQMsQMHN12tz-65" value="Send Job" style="edgeLabel;html=1;align=center;verticalAlign=middle;resizable=0;points=[];" vertex="1" connectable="0" parent="YzzAQYbLmQMsQMHN12tz-64">
          <mxGeometry x="0.1671" relative="1" as="geometry">
            <mxPoint x="-9" y="10" as="offset" />
          </mxGeometry>
        </mxCell>
        <mxCell id="YzzAQYbLmQMsQMHN12tz-66" value=":Process Holding" style="shape=umlLifeline;perimeter=lifelinePerimeter;whiteSpace=wrap;html=1;container=1;collapsible=0;recursiveResize=0;outlineConnect=0;fillColor=default;" vertex="1" parent="1">
          <mxGeometry x="2080" y="120" width="80" height="480" as="geometry" />
        </mxCell>
        <mxCell id="YzzAQYbLmQMsQMHN12tz-71" value="" style="html=1;points=[];perimeter=orthogonalPerimeter;fillColor=default;" vertex="1" parent="YzzAQYbLmQMsQMHN12tz-66">
          <mxGeometry x="35" y="250" width="10" height="30" as="geometry" />
        </mxCell>
        <mxCell id="YzzAQYbLmQMsQMHN12tz-89" value="" style="html=1;points=[];perimeter=orthogonalPerimeter;fillColor=default;" vertex="1" parent="YzzAQYbLmQMsQMHN12tz-66">
          <mxGeometry x="35" y="330" width="10" height="80" as="geometry" />
        </mxCell>
        <mxCell id="YzzAQYbLmQMsQMHN12tz-67" value=":Request Holding" style="shape=umlLifeline;perimeter=lifelinePerimeter;whiteSpace=wrap;html=1;container=1;collapsible=0;recursiveResize=0;outlineConnect=0;fillColor=default;" vertex="1" parent="1">
          <mxGeometry x="2200" y="120" width="80" height="560" as="geometry" />
        </mxCell>
        <mxCell id="YzzAQYbLmQMsQMHN12tz-72" value="" style="html=1;points=[];perimeter=orthogonalPerimeter;fillColor=default;" vertex="1" parent="YzzAQYbLmQMsQMHN12tz-67">
          <mxGeometry x="35" y="220" width="10" height="40" as="geometry" />
        </mxCell>
        <mxCell id="YzzAQYbLmQMsQMHN12tz-99" value="" style="html=1;points=[];perimeter=orthogonalPerimeter;fillColor=default;" vertex="1" parent="YzzAQYbLmQMsQMHN12tz-67">
          <mxGeometry x="35" y="400" width="10" height="30" as="geometry" />
        </mxCell>
        <mxCell id="YzzAQYbLmQMsQMHN12tz-104" value="" style="html=1;points=[];perimeter=orthogonalPerimeter;fillColor=default;" vertex="1" parent="YzzAQYbLmQMsQMHN12tz-67">
          <mxGeometry x="35" y="440" width="10" height="80" as="geometry" />
        </mxCell>
        <mxCell id="YzzAQYbLmQMsQMHN12tz-68" style="edgeStyle=orthogonalEdgeStyle;rounded=0;orthogonalLoop=1;jettySize=auto;html=1;startArrow=classic;startFill=1;dashed=1;endArrow=none;endFill=0;" edge="1" parent="1" source="YzzAQYbLmQMsQMHN12tz-57" target="YzzAQYbLmQMsQMHN12tz-63">
          <mxGeometry relative="1" as="geometry">
            <mxPoint x="1810" y="379.71857142857135" as="sourcePoint" />
            <mxPoint x="1920" y="379.71857142857135" as="targetPoint" />
            <Array as="points">
              <mxPoint x="1860" y="330" />
              <mxPoint x="1860" y="330" />
            </Array>
          </mxGeometry>
        </mxCell>
        <mxCell id="YzzAQYbLmQMsQMHN12tz-69" value="ack" style="edgeLabel;html=1;align=center;verticalAlign=middle;resizable=0;points=[];" vertex="1" connectable="0" parent="YzzAQYbLmQMsQMHN12tz-68">
          <mxGeometry x="0.1962" y="-2" relative="1" as="geometry">
            <mxPoint x="-13" y="8" as="offset" />
          </mxGeometry>
        </mxCell>
        <mxCell id="YzzAQYbLmQMsQMHN12tz-78" style="edgeStyle=orthogonalEdgeStyle;rounded=0;orthogonalLoop=1;jettySize=auto;html=1;startArrow=none;startFill=0;endArrow=classic;endFill=1;" edge="1" parent="1" source="YzzAQYbLmQMsQMHN12tz-77" target="YzzAQYbLmQMsQMHN12tz-39">
          <mxGeometry relative="1" as="geometry">
            <Array as="points">
              <mxPoint x="1250" y="200" />
              <mxPoint x="1250" y="200" />
            </Array>
          </mxGeometry>
        </mxCell>
        <mxCell id="YzzAQYbLmQMsQMHN12tz-79" value="Job Request" style="edgeLabel;html=1;align=center;verticalAlign=middle;resizable=0;points=[];" vertex="1" connectable="0" parent="YzzAQYbLmQMsQMHN12tz-78">
          <mxGeometry x="0.0947" y="-2" relative="1" as="geometry">
            <mxPoint x="-4" y="8" as="offset" />
          </mxGeometry>
        </mxCell>
        <mxCell id="YzzAQYbLmQMsQMHN12tz-77" value="Client" style="shape=umlLifeline;participant=umlActor;perimeter=lifelinePerimeter;whiteSpace=wrap;html=1;container=1;collapsible=0;recursiveResize=0;verticalAlign=top;spacingTop=36;outlineConnect=0;fillColor=default;" vertex="1" parent="1">
          <mxGeometry x="1210" y="120" width="20" height="840" as="geometry" />
        </mxCell>
        <mxCell id="YzzAQYbLmQMsQMHN12tz-80" value="Worker Machine" style="shape=umlLifeline;participant=umlActor;perimeter=lifelinePerimeter;whiteSpace=wrap;html=1;container=1;collapsible=0;recursiveResize=0;verticalAlign=top;spacingTop=36;outlineConnect=0;fillColor=default;size=40;" vertex="1" parent="1">
          <mxGeometry x="2010" y="120" width="20" height="440" as="geometry" />
        </mxCell>
        <mxCell id="YzzAQYbLmQMsQMHN12tz-81" value="" style="html=1;points=[];perimeter=orthogonalPerimeter;fillColor=default;" vertex="1" parent="YzzAQYbLmQMsQMHN12tz-80">
          <mxGeometry x="5" y="170" width="10" height="210" as="geometry" />
        </mxCell>
        <mxCell id="YzzAQYbLmQMsQMHN12tz-82" style="edgeStyle=orthogonalEdgeStyle;rounded=0;orthogonalLoop=1;jettySize=auto;html=1;startArrow=none;startFill=0;endArrow=classic;endFill=1;" edge="1" parent="1" source="YzzAQYbLmQMsQMHN12tz-63" target="YzzAQYbLmQMsQMHN12tz-81">
          <mxGeometry relative="1" as="geometry">
            <Array as="points">
              <mxPoint x="1950" y="300" />
              <mxPoint x="1950" y="300" />
            </Array>
          </mxGeometry>
        </mxCell>
        <mxCell id="YzzAQYbLmQMsQMHN12tz-85" value="Send Job" style="edgeLabel;html=1;align=center;verticalAlign=middle;resizable=0;points=[];" vertex="1" connectable="0" parent="YzzAQYbLmQMsQMHN12tz-82">
          <mxGeometry x="0.2127" relative="1" as="geometry">
            <mxPoint x="-10" y="10" as="offset" />
          </mxGeometry>
        </mxCell>
        <mxCell id="YzzAQYbLmQMsQMHN12tz-83" style="edgeStyle=orthogonalEdgeStyle;rounded=0;orthogonalLoop=1;jettySize=auto;html=1;startArrow=none;startFill=0;endArrow=classic;endFill=1;dashed=1;" edge="1" parent="1" source="YzzAQYbLmQMsQMHN12tz-81" target="YzzAQYbLmQMsQMHN12tz-63">
          <mxGeometry relative="1" as="geometry">
            <Array as="points">
              <mxPoint x="1970" y="320" />
              <mxPoint x="1970" y="320" />
            </Array>
          </mxGeometry>
        </mxCell>
        <mxCell id="YzzAQYbLmQMsQMHN12tz-84" value="ack" style="edgeLabel;html=1;align=center;verticalAlign=middle;resizable=0;points=[];" vertex="1" connectable="0" parent="YzzAQYbLmQMsQMHN12tz-83">
          <mxGeometry x="-0.1492" y="1" relative="1" as="geometry">
            <mxPoint x="-7" y="9" as="offset" />
          </mxGeometry>
        </mxCell>
        <mxCell id="YzzAQYbLmQMsQMHN12tz-75" style="edgeStyle=orthogonalEdgeStyle;rounded=0;orthogonalLoop=1;jettySize=auto;html=1;startArrow=none;startFill=0;endArrow=classic;endFill=1;" edge="1" parent="1" source="YzzAQYbLmQMsQMHN12tz-57" target="YzzAQYbLmQMsQMHN12tz-71">
          <mxGeometry relative="1" as="geometry">
            <Array as="points">
              <mxPoint x="1920" y="380" />
              <mxPoint x="1920" y="380" />
            </Array>
          </mxGeometry>
        </mxCell>
        <mxCell id="YzzAQYbLmQMsQMHN12tz-76" value="Move Process&lt;br&gt;To Holding" style="edgeLabel;html=1;align=center;verticalAlign=middle;resizable=0;points=[];" vertex="1" connectable="0" parent="YzzAQYbLmQMsQMHN12tz-75">
          <mxGeometry x="-0.3565" y="-1" relative="1" as="geometry">
            <mxPoint x="-55" y="19" as="offset" />
          </mxGeometry>
        </mxCell>
        <mxCell id="YzzAQYbLmQMsQMHN12tz-73" style="edgeStyle=orthogonalEdgeStyle;rounded=0;orthogonalLoop=1;jettySize=auto;html=1;startArrow=none;startFill=0;endArrow=classic;endFill=1;" edge="1" parent="1" source="YzzAQYbLmQMsQMHN12tz-47" target="YzzAQYbLmQMsQMHN12tz-72">
          <mxGeometry relative="1" as="geometry">
            <Array as="points">
              <mxPoint x="1860" y="350" />
              <mxPoint x="1860" y="350" />
            </Array>
          </mxGeometry>
        </mxCell>
        <mxCell id="YzzAQYbLmQMsQMHN12tz-74" value="Move Request&lt;br&gt;To Holding" style="edgeLabel;html=1;align=center;verticalAlign=middle;resizable=0;points=[];" vertex="1" connectable="0" parent="YzzAQYbLmQMsQMHN12tz-73">
          <mxGeometry x="-0.1155" relative="1" as="geometry">
            <mxPoint x="-252" y="20" as="offset" />
          </mxGeometry>
        </mxCell>
        <mxCell id="YzzAQYbLmQMsQMHN12tz-87" style="edgeStyle=orthogonalEdgeStyle;rounded=0;orthogonalLoop=1;jettySize=auto;html=1;startArrow=none;startFill=0;endArrow=classic;endFill=1;" edge="1" parent="1" source="YzzAQYbLmQMsQMHN12tz-81" target="YzzAQYbLmQMsQMHN12tz-86">
          <mxGeometry relative="1" as="geometry">
            <Array as="points">
              <mxPoint x="1850" y="440" />
              <mxPoint x="1850" y="440" />
            </Array>
          </mxGeometry>
        </mxCell>
        <mxCell id="YzzAQYbLmQMsQMHN12tz-88" value="Process Complete" style="edgeLabel;html=1;align=center;verticalAlign=middle;resizable=0;points=[];" vertex="1" connectable="0" parent="YzzAQYbLmQMsQMHN12tz-87">
          <mxGeometry x="-0.8457" relative="1" as="geometry">
            <mxPoint x="8" y="10" as="offset" />
          </mxGeometry>
        </mxCell>
        <mxCell id="YzzAQYbLmQMsQMHN12tz-90" style="edgeStyle=orthogonalEdgeStyle;rounded=0;orthogonalLoop=1;jettySize=auto;html=1;startArrow=none;startFill=0;endArrow=classic;endFill=1;" edge="1" parent="1" source="YzzAQYbLmQMsQMHN12tz-86" target="YzzAQYbLmQMsQMHN12tz-89">
          <mxGeometry relative="1" as="geometry">
            <Array as="points">
              <mxPoint x="1320" y="490" />
            </Array>
          </mxGeometry>
        </mxCell>
        <mxCell id="YzzAQYbLmQMsQMHN12tz-91" value="Update Process" style="edgeLabel;html=1;align=center;verticalAlign=middle;resizable=0;points=[];" vertex="1" connectable="0" parent="YzzAQYbLmQMsQMHN12tz-90">
          <mxGeometry x="-0.8982" y="-1" relative="1" as="geometry">
            <mxPoint x="5" y="16" as="offset" />
          </mxGeometry>
        </mxCell>
        <mxCell id="YzzAQYbLmQMsQMHN12tz-92" value=":Thread" style="shape=umlLifeline;perimeter=lifelinePerimeter;whiteSpace=wrap;html=1;container=1;collapsible=0;recursiveResize=0;outlineConnect=0;fillColor=default;" vertex="1" parent="1">
          <mxGeometry x="2320" y="120" width="80" height="840" as="geometry" />
        </mxCell>
        <mxCell id="YzzAQYbLmQMsQMHN12tz-93" value="" style="html=1;points=[];perimeter=orthogonalPerimeter;fillColor=default;" vertex="1" parent="YzzAQYbLmQMsQMHN12tz-92">
          <mxGeometry x="35" y="80" width="10" height="720" as="geometry" />
        </mxCell>
        <mxCell id="YzzAQYbLmQMsQMHN12tz-94" style="edgeStyle=orthogonalEdgeStyle;rounded=0;orthogonalLoop=1;jettySize=auto;html=1;startArrow=none;startFill=0;endArrow=classic;endFill=1;" edge="1" parent="1" source="YzzAQYbLmQMsQMHN12tz-93" target="YzzAQYbLmQMsQMHN12tz-89">
          <mxGeometry relative="1" as="geometry">
            <Array as="points">
              <mxPoint x="2290" y="470" />
              <mxPoint x="2290" y="470" />
            </Array>
          </mxGeometry>
        </mxCell>
        <mxCell id="YzzAQYbLmQMsQMHN12tz-95" value="Get Complete Process" style="edgeLabel;html=1;align=center;verticalAlign=middle;resizable=0;points=[];" vertex="1" connectable="0" parent="YzzAQYbLmQMsQMHN12tz-94">
          <mxGeometry x="-0.663" relative="1" as="geometry">
            <mxPoint x="-26" y="10" as="offset" />
          </mxGeometry>
        </mxCell>
        <mxCell id="YzzAQYbLmQMsQMHN12tz-96" style="edgeStyle=orthogonalEdgeStyle;rounded=0;orthogonalLoop=1;jettySize=auto;html=1;startArrow=none;startFill=0;endArrow=classic;endFill=1;dashed=1;" edge="1" parent="1" source="YzzAQYbLmQMsQMHN12tz-89" target="YzzAQYbLmQMsQMHN12tz-93">
          <mxGeometry relative="1" as="geometry">
            <Array as="points">
              <mxPoint x="2240" y="500" />
              <mxPoint x="2240" y="500" />
            </Array>
          </mxGeometry>
        </mxCell>
        <mxCell id="YzzAQYbLmQMsQMHN12tz-97" value="Process" style="edgeLabel;html=1;align=center;verticalAlign=middle;resizable=0;points=[];" vertex="1" connectable="0" parent="YzzAQYbLmQMsQMHN12tz-96">
          <mxGeometry x="-0.2846" relative="1" as="geometry">
            <mxPoint x="-47" y="10" as="offset" />
          </mxGeometry>
        </mxCell>
        <mxCell id="YzzAQYbLmQMsQMHN12tz-100" style="edgeStyle=orthogonalEdgeStyle;rounded=0;orthogonalLoop=1;jettySize=auto;html=1;dashed=1;startArrow=none;startFill=0;endArrow=classic;endFill=1;" edge="1" parent="1" source="YzzAQYbLmQMsQMHN12tz-93" target="YzzAQYbLmQMsQMHN12tz-99">
          <mxGeometry relative="1" as="geometry">
            <Array as="points">
              <mxPoint x="2270" y="530" />
              <mxPoint x="2270" y="530" />
            </Array>
          </mxGeometry>
        </mxCell>
        <mxCell id="YzzAQYbLmQMsQMHN12tz-101" value="Update Request" style="edgeLabel;html=1;align=center;verticalAlign=middle;resizable=0;points=[];" vertex="1" connectable="0" parent="YzzAQYbLmQMsQMHN12tz-100">
          <mxGeometry x="-0.3078" relative="1" as="geometry">
            <mxPoint x="-7" y="10" as="offset" />
          </mxGeometry>
        </mxCell>
        <mxCell id="YzzAQYbLmQMsQMHN12tz-102" value=":Thread" style="shape=umlLifeline;perimeter=lifelinePerimeter;whiteSpace=wrap;html=1;container=1;collapsible=0;recursiveResize=0;outlineConnect=0;fillColor=default;" vertex="1" parent="1">
          <mxGeometry x="2440" y="120" width="80" height="840" as="geometry" />
        </mxCell>
        <mxCell id="YzzAQYbLmQMsQMHN12tz-103" value="" style="html=1;points=[];perimeter=orthogonalPerimeter;fillColor=default;" vertex="1" parent="YzzAQYbLmQMsQMHN12tz-102">
          <mxGeometry x="35" y="80" width="10" height="720" as="geometry" />
        </mxCell>
        <mxCell id="YzzAQYbLmQMsQMHN12tz-105" style="edgeStyle=orthogonalEdgeStyle;rounded=0;orthogonalLoop=1;jettySize=auto;html=1;startArrow=none;startFill=0;endArrow=classic;endFill=1;" edge="1" parent="1" source="YzzAQYbLmQMsQMHN12tz-103" target="YzzAQYbLmQMsQMHN12tz-104">
          <mxGeometry relative="1" as="geometry">
            <Array as="points">
              <mxPoint x="2420" y="570" />
              <mxPoint x="2420" y="570" />
            </Array>
          </mxGeometry>
        </mxCell>
        <mxCell id="YzzAQYbLmQMsQMHN12tz-106" value="Get Complete&lt;br&gt;Request" style="edgeLabel;html=1;align=center;verticalAlign=middle;resizable=0;points=[];" vertex="1" connectable="0" parent="YzzAQYbLmQMsQMHN12tz-105">
          <mxGeometry x="-0.7681" y="1" relative="1" as="geometry">
            <mxPoint x="-28" y="19" as="offset" />
          </mxGeometry>
        </mxCell>
        <mxCell id="YzzAQYbLmQMsQMHN12tz-107" style="edgeStyle=orthogonalEdgeStyle;rounded=0;orthogonalLoop=1;jettySize=auto;html=1;dashed=1;startArrow=none;startFill=0;endArrow=classic;endFill=1;" edge="1" parent="1" source="YzzAQYbLmQMsQMHN12tz-104" target="YzzAQYbLmQMsQMHN12tz-103">
          <mxGeometry relative="1" as="geometry">
            <Array as="points">
              <mxPoint x="2310" y="620" />
              <mxPoint x="2310" y="620" />
            </Array>
          </mxGeometry>
        </mxCell>
        <mxCell id="YzzAQYbLmQMsQMHN12tz-108" value="Request" style="edgeLabel;html=1;align=center;verticalAlign=middle;resizable=0;points=[];" vertex="1" connectable="0" parent="YzzAQYbLmQMsQMHN12tz-107">
          <mxGeometry x="-0.6449" y="-2" relative="1" as="geometry">
            <mxPoint y="8" as="offset" />
          </mxGeometry>
        </mxCell>
        <mxCell id="YzzAQYbLmQMsQMHN12tz-109" value=":Thread" style="shape=umlLifeline;perimeter=lifelinePerimeter;whiteSpace=wrap;html=1;container=1;collapsible=0;recursiveResize=0;outlineConnect=0;fillColor=default;" vertex="1" parent="1">
          <mxGeometry x="2680" y="120" width="80" height="840" as="geometry" />
        </mxCell>
        <mxCell id="YzzAQYbLmQMsQMHN12tz-110" value="" style="html=1;points=[];perimeter=orthogonalPerimeter;fillColor=default;" vertex="1" parent="YzzAQYbLmQMsQMHN12tz-109">
          <mxGeometry x="35" y="80" width="10" height="720" as="geometry" />
        </mxCell>
        <mxCell id="YzzAQYbLmQMsQMHN12tz-111" value=":Request Complete Holding" style="shape=umlLifeline;perimeter=lifelinePerimeter;whiteSpace=wrap;html=1;container=1;collapsible=0;recursiveResize=0;outlineConnect=0;fillColor=default;" vertex="1" parent="1">
          <mxGeometry x="2560" y="120" width="80" height="720" as="geometry" />
        </mxCell>
        <mxCell id="YzzAQYbLmQMsQMHN12tz-114" value="" style="html=1;points=[];perimeter=orthogonalPerimeter;fillColor=default;" vertex="1" parent="YzzAQYbLmQMsQMHN12tz-111">
          <mxGeometry x="35" y="500" width="10" height="40" as="geometry" />
        </mxCell>
        <mxCell id="YzzAQYbLmQMsQMHN12tz-117" value="" style="html=1;points=[];perimeter=orthogonalPerimeter;fillColor=default;" vertex="1" parent="YzzAQYbLmQMsQMHN12tz-111">
          <mxGeometry x="35" y="570" width="10" height="70" as="geometry" />
        </mxCell>
        <mxCell id="YzzAQYbLmQMsQMHN12tz-115" style="edgeStyle=orthogonalEdgeStyle;rounded=0;orthogonalLoop=1;jettySize=auto;html=1;startArrow=none;startFill=0;endArrow=classic;endFill=1;" edge="1" parent="1" source="YzzAQYbLmQMsQMHN12tz-103" target="YzzAQYbLmQMsQMHN12tz-114">
          <mxGeometry relative="1" as="geometry">
            <Array as="points">
              <mxPoint x="2560" y="640" />
              <mxPoint x="2560" y="640" />
            </Array>
          </mxGeometry>
        </mxCell>
        <mxCell id="YzzAQYbLmQMsQMHN12tz-116" value="Move Request&lt;br&gt;to Complete" style="edgeLabel;html=1;align=center;verticalAlign=middle;resizable=0;points=[];" vertex="1" connectable="0" parent="YzzAQYbLmQMsQMHN12tz-115">
          <mxGeometry x="-0.2424" y="-2" relative="1" as="geometry">
            <mxPoint x="13" y="18" as="offset" />
          </mxGeometry>
        </mxCell>
        <mxCell id="YzzAQYbLmQMsQMHN12tz-118" style="edgeStyle=orthogonalEdgeStyle;rounded=0;orthogonalLoop=1;jettySize=auto;html=1;startArrow=none;startFill=0;endArrow=classic;endFill=1;" edge="1" parent="1" source="YzzAQYbLmQMsQMHN12tz-110" target="YzzAQYbLmQMsQMHN12tz-117">
          <mxGeometry relative="1" as="geometry">
            <Array as="points">
              <mxPoint x="2690" y="700" />
              <mxPoint x="2690" y="700" />
            </Array>
          </mxGeometry>
        </mxCell>
        <mxCell id="YzzAQYbLmQMsQMHN12tz-119" value="Get Complete&lt;br&gt;Request Results" style="edgeLabel;html=1;align=center;verticalAlign=middle;resizable=0;points=[];" vertex="1" connectable="0" parent="YzzAQYbLmQMsQMHN12tz-118">
          <mxGeometry x="-0.303" y="1" relative="1" as="geometry">
            <mxPoint x="-7" y="19" as="offset" />
          </mxGeometry>
        </mxCell>
        <mxCell id="YzzAQYbLmQMsQMHN12tz-120" style="edgeStyle=orthogonalEdgeStyle;rounded=0;orthogonalLoop=1;jettySize=auto;html=1;startArrow=none;startFill=0;endArrow=classic;endFill=1;dashed=1;" edge="1" parent="1" source="YzzAQYbLmQMsQMHN12tz-117" target="YzzAQYbLmQMsQMHN12tz-110">
          <mxGeometry relative="1" as="geometry">
            <Array as="points">
              <mxPoint x="2660" y="750" />
              <mxPoint x="2660" y="750" />
            </Array>
          </mxGeometry>
        </mxCell>
        <mxCell id="YzzAQYbLmQMsQMHN12tz-121" value="Request&lt;br&gt;Results" style="edgeLabel;html=1;align=center;verticalAlign=middle;resizable=0;points=[];" vertex="1" connectable="0" parent="YzzAQYbLmQMsQMHN12tz-120">
          <mxGeometry x="-0.6468" relative="1" as="geometry">
            <mxPoint x="15" y="20" as="offset" />
          </mxGeometry>
        </mxCell>
        <mxCell id="YzzAQYbLmQMsQMHN12tz-122" style="edgeStyle=orthogonalEdgeStyle;rounded=0;orthogonalLoop=1;jettySize=auto;html=1;startArrow=none;startFill=0;endArrow=classic;endFill=1;" edge="1" parent="1" source="YzzAQYbLmQMsQMHN12tz-110" target="YzzAQYbLmQMsQMHN12tz-77">
          <mxGeometry relative="1" as="geometry">
            <Array as="points">
              <mxPoint x="1960" y="800" />
              <mxPoint x="1960" y="800" />
            </Array>
          </mxGeometry>
        </mxCell>
        <mxCell id="YzzAQYbLmQMsQMHN12tz-123" value="Notify Client" style="edgeLabel;html=1;align=center;verticalAlign=middle;resizable=0;points=[];" vertex="1" connectable="0" parent="YzzAQYbLmQMsQMHN12tz-122">
          <mxGeometry x="-0.939" y="3" relative="1" as="geometry">
            <mxPoint y="7" as="offset" />
          </mxGeometry>
        </mxCell>
        <mxCell id="YzzAQYbLmQMsQMHN12tz-124" value="TCP/IP" style="rounded=1;whiteSpace=wrap;html=1;fillColor=none;" vertex="1" parent="1">
          <mxGeometry x="400" y="498.5" width="120" height="40" as="geometry" />
        </mxCell>
        <mxCell id="YzzAQYbLmQMsQMHN12tz-125" value="Threading" style="rounded=1;whiteSpace=wrap;html=1;fillColor=none;" vertex="1" parent="1">
          <mxGeometry x="400" y="560" width="120" height="40" as="geometry" />
        </mxCell>
        <mxCell id="YzzAQYbLmQMsQMHN12tz-126" value="List of Worker Machines" style="rounded=1;whiteSpace=wrap;html=1;fillColor=none;" vertex="1" parent="1">
          <mxGeometry x="600" y="560" width="120" height="40" as="geometry" />
        </mxCell>
        <mxCell id="YzzAQYbLmQMsQMHN12tz-127" value="Worker Caller" style="rounded=1;whiteSpace=wrap;html=1;fillColor=none;" vertex="1" parent="1">
          <mxGeometry x="600" y="498.5" width="120" height="40" as="geometry" />
        </mxCell>
      </root>
    </mxGraphModel>
  </diagram>
</mxfile>
